<svg xmlns="http://www.w3.org/2000/svg" viewBox="0 0 64 64" width="64" height="64">
  <!-- Background -->
  <rect width="64" height="64" rx="12" fill="url(#gradient)" />
  
  <!-- Calculator Display -->
  <rect x="12" y="12" width="40" height="12" rx="2" fill="white" fill-opacity="0.95" />
  
  <!-- Display Content: % Symbol -->
  <text x="26" y="22" font-family="Arial, sans-serif" font-weight="bold" font-size="10" fill="#3b82f6">%</text>
  
  <!-- Calculator Buttons -->
  <rect x="12" y="28" width="9" height="9" rx="2" fill="white" fill-opacity="0.9" />
  <rect x="23" y="28" width="9" height="9" rx="2" fill="white" fill-opacity="0.9" />
  <rect x="34" y="28" width="9" height="9" rx="2" fill="white" fill-opacity="0.9" />
  <rect x="45" y="28" width="7" height="9" rx="2" fill="#f59e0b" fill-opacity="0.9" />
  
  <rect x="12" y="39" width="9" height="9" rx="2" fill="white" fill-opacity="0.9" />
  <rect x="23" y="39" width="9" height="9" rx="2" fill="white" fill-opacity="0.9" />
  <rect x="34" y="39" width="9" height="9" rx="2" fill="white" fill-opacity="0.9" />
  <rect x="45" y="39" width="7" height="9" rx="2" fill="#f59e0b" fill-opacity="0.9" />
  
  <rect x="12" y="50" width="20" height="9" rx="2" fill="white" fill-opacity="0.9" />
  <rect x="34" y="50" width="9" height="9" rx="2" fill="white" fill-opacity="0.9" />
  <rect x="45" y="50" width="7" height="9" rx="2" fill="#f59e0b" fill-opacity="0.9" />
  
  <!-- Growth Line -->
  <path d="M15,20 L19,18 L23,19 L27,16 L31,17 L35,15 L39,16 L43,14" 
        stroke="#10b981" stroke-width="1" fill="none" stroke-linecap="round" stroke-linejoin="round" />
  
  <!-- Gradient Definition -->
  <defs>
    <linearGradient id="gradient" x1="0%" y1="0%" x2="100%" y2="100%">
      <stop offset="0%" style="stop-color:#3b82f6;stop-opacity:1" />
      <stop offset="100%" style="stop-color:#1e40af;stop-opacity:1" />
    </linearGradient>
  </defs>
</svg>